<svg width="45" height="45" viewBox="0 0 45 45" fill="none" xmlns="http://www.w3.org/2000/svg">
<path d="M45 22.6332C45 10.2803 34.985 0.266296 22.6309 0.266296C10.2767 0.266296 0.261719 10.2803 0.261719 22.6332C0.261719 34.9861 10.2767 45.0001 22.6309 45.0001C34.985 45.0001 45 34.9861 45 22.6332Z" fill="url(#paint0_linear_2148_224)"/>
<path opacity="0.1" d="M39.4668 7.91803C36.2056 13.9041 31.5934 20.0786 25.8304 25.841C20.0674 31.6034 13.8924 36.2063 7.9145 39.4671C7.53972 39.1414 7.17573 38.802 6.82253 38.4488C4.68762 36.3854 2.98492 33.9176 1.81371 31.1894C0.642501 28.4612 0.0262261 25.5271 0.000818996 22.5583C-0.0245881 19.5894 0.541381 16.6452 1.66572 13.8974C2.79007 11.1495 4.45029 8.65297 6.54957 6.55332C8.64885 4.45366 11.1452 2.79292 13.893 1.66792C16.6409 0.542924 19.5852 -0.0238094 22.5543 0.000766352C25.5235 0.0253421 28.458 0.640735 31.1868 1.81106C33.9157 2.98139 36.3842 4.68323 38.4484 6.81734C38.8016 7.17051 39.1411 7.5374 39.4668 7.91803V7.91803Z" fill="white"/>
<path d="M27.9296 10.8612H17.3337C15.6163 10.8612 13.9693 11.5433 12.755 12.7575C11.5406 13.9718 10.8584 15.6186 10.8584 17.3358V27.9306C10.8584 29.6478 11.5406 31.2947 12.755 32.5089C13.9693 33.7231 15.6163 34.4053 17.3337 34.4053H27.9296C29.647 34.4053 31.294 33.7231 32.5083 32.5089C33.7227 31.2947 34.4049 29.6478 34.4049 27.9306V17.3358C34.4049 15.6186 33.7227 13.9718 32.5083 12.7575C31.294 11.5433 29.647 10.8612 27.9296 10.8612ZM32.3446 27.0006C32.3446 28.4181 31.7814 29.7775 30.779 30.7798C29.7766 31.7821 28.4171 32.3452 26.9995 32.3452H18.2638C16.8462 32.3452 15.4866 31.7821 14.4842 30.7798C13.4819 29.7775 12.9187 28.4181 12.9187 27.0006V18.2658C12.9187 16.8483 13.4819 15.4889 14.4842 14.4867C15.4866 13.4844 16.8462 12.9213 18.2638 12.9213H26.9995C28.4171 12.9213 29.7766 13.4844 30.779 14.4867C31.7814 15.4889 32.3446 16.8483 32.3446 18.2658V27.0006Z" fill="white"/>
<path d="M26.9267 18.3835L26.8708 18.3276L26.8237 18.2805C25.7108 17.1716 24.2035 16.5493 22.6324 16.55C21.839 16.5554 21.0545 16.7171 20.3236 17.0258C19.5927 17.3344 18.9298 17.7841 18.3727 18.349C17.8157 18.9139 17.3754 19.583 17.077 20.3181C16.7787 21.0533 16.6281 21.8399 16.634 22.6333C16.6328 24.2432 17.2674 25.7886 18.3999 26.933C18.9547 27.4944 19.6157 27.9397 20.3444 28.2429C21.0731 28.5461 21.8549 28.701 22.6442 28.6988C23.8281 28.674 24.9792 28.3052 25.9571 27.6375C26.935 26.9697 27.6975 26.0319 28.1515 24.9383C28.6055 23.8448 28.7314 22.6427 28.514 21.4788C28.2965 20.3149 27.745 19.2394 26.9267 18.3835V18.3835ZM22.6324 26.624C21.8408 26.6351 21.0637 26.4105 20.4 25.9788C19.7364 25.5471 19.2161 24.9277 18.9055 24.1996C18.5948 23.4714 18.5077 22.6673 18.6554 21.8895C18.803 21.1118 19.1786 20.3955 19.7345 19.8318C20.2904 19.268 21.0014 18.8824 21.7771 18.7238C22.5528 18.5652 23.3581 18.6409 24.0906 18.9413C24.8232 19.2416 25.4498 19.753 25.8909 20.4104C26.332 21.0679 26.5676 21.8416 26.5676 22.6333C26.5715 23.1537 26.4728 23.6698 26.2771 24.1521C26.0814 24.6344 25.7925 25.0734 25.4271 25.444C25.0616 25.8146 24.6267 26.1096 24.1472 26.312C23.6677 26.5145 23.1529 26.6205 22.6324 26.624V26.624Z" fill="white"/>
<path d="M30.4113 16.2706C30.4128 16.4594 30.3771 16.6468 30.3062 16.8218C30.2352 16.9969 30.1305 17.1562 29.9979 17.2907C29.8653 17.4252 29.7075 17.5322 29.5335 17.6057C29.3594 17.6791 29.1726 17.7175 28.9838 17.7187C28.7965 17.7186 28.6111 17.6813 28.4383 17.6091C28.2655 17.5368 28.1088 17.431 27.9772 17.2978C27.7778 17.0955 27.6421 16.8391 27.5871 16.5604C27.532 16.2817 27.56 15.993 27.6675 15.7301C27.775 15.4672 27.9573 15.2416 28.1918 15.0813C28.4263 14.921 28.7027 14.833 28.9867 14.8283C29.3191 14.8283 29.641 14.9449 29.8962 15.158L29.9256 15.1874C29.9731 15.2261 30.0165 15.2695 30.0551 15.3169L30.0875 15.3522C30.2982 15.6118 30.4126 15.9363 30.4113 16.2706V16.2706Z" fill="white"/>
<defs>
<linearGradient id="paint0_linear_2148_224" x1="6.81353" y1="6.81744" x2="38.445" y2="38.4521" gradientUnits="userSpaceOnUse">
<stop stop-color="#FAE100"/>
<stop offset="0.15" stop-color="#FCB720"/>
<stop offset="0.3" stop-color="#FF7950"/>
<stop offset="0.5" stop-color="#FF1C74"/>
<stop offset="1" stop-color="#6C1CD1"/>
</linearGradient>
</defs>
</svg>
