<svg xmlns:xlink="http://www.w3.org/1999/xlink" width="32" height="32" xmlns="http://www.w3.org/2000/svg" fill="none" viewBox="0 0 24 24"><path d="M0 12C0 5.37258 5.37258 0 12 0C18.6274 0 24 5.37258 24 12C24 18.6274 18.6274 24 12 24C5.37258 24 0 18.6274 0 12Z" fill="#FFFC00"></path><path d="M19.571 15.8373C19.5028 15.6212 19.1843 15.462 19.1843 15.462C19.1502 15.4506 19.1274 15.4278 19.1047 15.4165C18.6042 15.1776 18.1379 14.8705 17.717 14.5065C17.4099 14.2335 17.1369 13.9264 16.9094 13.5852C16.7161 13.3008 16.5682 12.9937 16.4658 12.6639C16.4317 12.5956 16.4317 12.516 16.4658 12.4364C16.4886 12.3909 16.5341 12.3454 16.5796 12.3112C16.7616 12.1861 17.0459 12.0041 17.2165 11.8904C17.3644 11.788 17.5009 11.7084 17.5805 11.6515C17.7966 11.515 17.9673 11.333 18.0924 11.1169C18.2175 10.8781 18.2402 10.5937 18.1379 10.3321C17.99 9.96811 17.6374 9.74062 17.2393 9.76337C17.1369 9.76337 17.0459 9.77475 16.9549 9.7975C16.7274 9.85437 16.5 9.92261 16.2838 10.0136C16.2725 10.0136 16.2611 10.0136 16.2611 10.0022V9.99086C16.2952 9.41077 16.2952 8.83067 16.2497 8.25057C16.2156 7.76147 16.1018 7.27237 15.8971 6.8174C15.5559 6.08943 14.9872 5.48659 14.2933 5.09986C12.8601 4.31502 11.1312 4.31502 9.70942 5.09986C9.33406 5.3046 9.0042 5.57758 8.71984 5.89607C8.46961 6.16905 8.25349 6.48754 8.09425 6.82877C7.88951 7.28375 7.77577 7.76147 7.74164 8.26195C7.69615 8.84204 7.69615 9.42214 7.73027 10.0022C7.73027 10.0136 7.71889 10.025 7.70752 10.025H7.69615C7.48003 9.93399 7.25254 9.86574 7.02505 9.80887C6.93406 9.78612 6.83169 9.77475 6.74069 9.77475C6.35396 9.752 5.98998 9.97949 5.84211 10.3435C5.73974 10.5937 5.76249 10.8894 5.88761 11.1283C6.01273 11.3444 6.19472 11.5378 6.41084 11.6629C6.49046 11.7198 6.62695 11.7994 6.77482 11.9018C6.94543 12.0155 7.22979 12.1975 7.40041 12.3226C7.44591 12.3567 7.49141 12.4022 7.52553 12.4591C7.55965 12.5387 7.55965 12.6184 7.52553 12.698C7.42316 13.0165 7.27529 13.3236 7.08193 13.6079C6.85444 13.9492 6.58145 14.2563 6.27434 14.5293C5.85349 14.8932 5.38714 15.2003 4.88666 15.4392C4.86391 15.4506 4.82979 15.462 4.79567 15.4847C4.79567 15.4847 4.47718 15.644 4.42031 15.8487C4.37481 16.1558 4.53405 16.4515 4.80704 16.5994C5.15965 16.8041 5.54638 16.9634 5.94448 17.0658C6.0241 17.0885 6.09235 17.0999 6.1606 17.1226C6.22884 17.1454 6.28572 17.1795 6.34259 17.225C6.38809 17.3046 6.41083 17.3842 6.42221 17.4752C6.44496 17.68 6.5587 17.862 6.71794 17.9757C6.97956 18.1122 7.27529 18.1691 7.57103 18.1463C8.026 18.1463 8.49236 18.2146 8.92458 18.3511C9.17482 18.4421 9.42506 18.5786 9.65255 18.7264C11.063 19.716 12.9398 19.716 14.3388 18.7264C14.5663 18.5786 14.8052 18.4534 15.0554 18.3624C15.499 18.2259 15.954 18.1577 16.409 18.1577C16.7047 18.1804 17.0004 18.1236 17.262 17.9871C17.4327 17.862 17.5464 17.6686 17.5691 17.4525C17.5691 17.3729 17.6033 17.3046 17.6374 17.2364C17.6829 17.1909 17.7511 17.1568 17.808 17.134C17.8763 17.1113 17.9445 17.0885 18.0241 17.0771C18.3881 16.9975 18.7407 16.861 19.0706 16.679C19.5824 16.3719 19.6165 16.0193 19.571 15.8373Z" fill="#FFFFFF"></path><path d="M20.0375 15.6894C19.9352 15.4277 19.7304 15.2003 19.4688 15.0865C19.4233 15.0638 19.3778 15.041 19.3437 15.0183C19.2754 14.9841 19.1958 14.95 19.1162 14.9045C18.411 14.5519 17.8081 14.0287 17.3418 13.3917C17.2281 13.2211 17.1257 13.0391 17.0347 12.8571C17.0006 12.7889 17.0006 12.7093 17.0233 12.641C17.0461 12.5955 17.0802 12.5614 17.1257 12.5386C17.2508 12.4476 17.3873 12.368 17.4783 12.2998C17.6375 12.1974 17.774 12.1064 17.8536 12.0495C18.1266 11.8675 18.3541 11.6287 18.5247 11.3443C18.7181 10.9803 18.7409 10.5481 18.593 10.1614C18.3769 9.61541 17.8423 9.25142 17.2508 9.27417C17.1257 9.27417 16.9892 9.28555 16.8641 9.31967L16.7617 9.34242C16.7731 8.95569 16.7617 8.56896 16.7276 8.1936C16.6821 7.2154 16.2954 6.27132 15.6356 5.55473C15.3171 5.20213 14.9418 4.89502 14.5209 4.65616C12.9399 3.7917 11.0176 3.7917 9.43657 4.65616C9.01571 4.89502 8.64036 5.19075 8.32187 5.55473C7.68491 6.2827 7.29818 7.2154 7.25268 8.1936C7.21856 8.58033 7.20718 8.96706 7.21855 9.34242L7.11619 9.31967C6.99107 9.28555 6.85457 9.27417 6.72945 9.27417C6.13798 9.25142 5.60339 9.60403 5.38727 10.1614C5.2394 10.5481 5.26215 10.9803 5.45552 11.3443C5.61476 11.6287 5.84225 11.8789 6.12661 12.0495C6.20623 12.1064 6.34272 12.186 6.50197 12.2998C6.59296 12.3566 6.71808 12.4363 6.8432 12.5273C6.8887 12.5614 6.92282 12.5955 6.95694 12.641C6.99107 12.7093 6.97969 12.7889 6.94557 12.8571C6.86595 13.0391 6.76358 13.2211 6.64983 13.3803C6.18348 14.0173 5.59201 14.5178 4.90955 14.8704C4.52282 15.0865 4.11334 15.2116 3.94272 15.678C3.8176 16.0647 3.91997 16.4969 4.22708 16.7699C4.3522 16.895 4.48869 16.9974 4.63656 17.0884C4.95504 17.259 5.29628 17.3955 5.64888 17.4979C5.71713 17.5206 5.79675 17.5434 5.85362 17.5889C5.96737 17.6913 5.95599 17.8505 6.11524 18.078C6.19486 18.1917 6.29723 18.3055 6.41097 18.3851C6.7522 18.5785 7.13893 18.6695 7.52566 18.6467C7.94652 18.6467 8.356 18.7036 8.7541 18.8287C8.97022 18.9197 9.18633 19.0221 9.3797 19.1586C10.9494 20.2391 13.0195 20.2391 14.5892 19.1586C14.7826 19.0334 14.9873 18.9197 15.2034 18.8287C15.6015 18.7036 16.0224 18.6467 16.4318 18.6467C16.8186 18.6695 17.2053 18.5785 17.5465 18.3851C17.683 18.2827 17.8081 18.1576 17.8878 18.0097C18.0015 17.8164 18.0015 17.6799 18.1039 17.5889C18.1608 17.5548 18.229 17.5206 18.2972 17.4979C18.6612 17.4069 19.0025 17.2704 19.3209 17.0884C19.4802 16.9974 19.6281 16.8837 19.7532 16.7585C20.0717 16.4742 20.1627 16.0647 20.0375 15.6894ZM18.9001 16.2922C18.2063 16.6789 17.7513 16.6334 17.3873 16.8609C17.0802 17.0543 17.2622 17.4751 17.0461 17.6344C16.7731 17.8164 15.9655 17.623 14.9304 17.9642C14.0773 18.2486 13.5314 19.0562 11.9844 19.0562C10.4375 19.0562 9.91429 18.2486 9.03846 17.9642C8.00339 17.623 7.19581 17.8277 6.92282 17.6344C6.70671 17.4865 6.87732 17.0543 6.58159 16.8609C6.22898 16.6334 5.76263 16.6676 5.06879 16.2922C4.62519 16.0533 4.87542 15.8941 5.02329 15.8258C7.53704 14.6088 7.93514 12.732 7.95789 12.5955C8.01477 12.4249 7.95789 12.2315 7.8214 12.1178C7.63941 11.9585 6.8432 11.4694 6.61571 11.3102C6.25173 11.06 6.09249 10.7983 6.20623 10.4912C6.28585 10.2979 6.49059 10.1728 6.70671 10.1955C6.77495 10.1955 6.8432 10.2069 6.91145 10.2183C7.30955 10.3092 7.69628 10.5026 7.92377 10.5595C7.94652 10.5709 7.98064 10.5709 8.00339 10.5709C8.12851 10.5709 8.16263 10.514 8.16263 10.3775C8.10576 9.68365 8.10576 8.97844 8.13988 8.2846C8.16263 7.49976 8.48112 6.73768 9.01571 6.15758C10.6423 4.51966 13.2925 4.50829 14.9304 6.13483L14.9532 6.15758C15.4878 6.73768 15.7949 7.48839 15.829 8.2846C15.8745 8.97844 15.8631 9.68365 15.8062 10.3775C15.7949 10.5254 15.8404 10.5709 15.9655 10.5709C15.9996 10.5709 16.0224 10.5709 16.0451 10.5595C16.2726 10.5026 16.6593 10.3092 17.0574 10.2183C17.1257 10.2069 17.1939 10.1955 17.2508 10.1955C17.4669 10.1728 17.6603 10.2979 17.7513 10.4912C17.865 10.8097 17.7058 11.06 17.3418 11.3102C17.1257 11.4581 16.3295 11.9585 16.1475 12.1178C16.011 12.2315 15.9541 12.4135 16.011 12.5955C16.0337 12.732 16.4318 14.6088 18.9456 15.8258C19.0935 15.9055 19.3437 16.0533 18.9001 16.2922Z" fill="black"></path></svg>