<svg width="45" height="45" viewBox="0 0 45 45" fill="none" xmlns="http://www.w3.org/2000/svg">
<path d="M22.5 45C34.9264 45 45 34.9264 45 22.5C45 10.0736 34.9264 0 22.5 0C10.0736 0 0 10.0736 0 22.5C0 34.9264 10.0736 45 22.5 45Z" fill="#03A9F4"/>
<path d="M37.075 13.4615C35.9787 13.9403 34.8191 14.2584 33.6319 14.4059C34.8834 13.6638 35.8189 12.4881 36.2609 11.102C35.0896 11.7972 33.8079 12.2869 32.4714 12.5497C31.6524 11.6738 30.5888 11.0647 29.4189 10.8015C28.2491 10.5383 27.027 10.6332 25.9118 11.0739C24.7966 11.5146 23.8399 12.2807 23.166 13.2726C22.4921 14.2644 22.1322 15.4361 22.1333 16.6352C22.129 17.0929 22.1757 17.5497 22.2724 17.9971C19.895 17.8803 17.569 17.2633 15.4463 16.1864C13.3236 15.1095 11.452 13.5969 9.95365 11.7474C9.1835 13.0631 8.9449 14.6232 9.28661 16.1089C9.62833 17.5947 10.5246 18.8938 11.7921 19.7408C10.846 19.7153 9.91994 19.4625 9.09214 19.0036V19.0688C9.0948 20.4479 9.57215 21.784 10.4439 22.8526C11.3157 23.9212 12.5288 24.657 13.8793 24.9365C13.3682 25.0708 12.8416 25.1365 12.3132 25.1319C11.9327 25.1389 11.5526 25.1052 11.1793 25.0313C11.5662 26.2173 12.3111 27.2544 13.3115 27.9997C14.3119 28.7451 15.5187 29.1623 16.7658 29.1938C14.6524 30.8457 12.047 31.743 9.3645 31.7428C8.88655 31.7468 8.40885 31.7191 7.93457 31.6599C10.6697 33.4233 13.8579 34.3551 17.1122 34.3421C28.1106 34.3421 34.1234 25.2326 34.1234 17.3369C34.1234 17.0734 34.1234 16.8188 34.1027 16.5642C35.2737 15.719 36.2809 14.6677 37.075 13.4615V13.4615Z" fill="white"/>
</svg>
